<?xml version="1.0" standalone="no"?>
<!DOCTYPE svg PUBLIC "-//W3C//DTD SVG 20010904//EN"
 "http://www.w3.org/TR/2001/REC-SVG-20010904/DTD/svg10.dtd">
<svg version="1.0" xmlns="http://www.w3.org/2000/svg"
 width="258.000000pt" height="258.000000pt" viewBox="0 0 258.000000 258.000000"
 preserveAspectRatio="xMidYMid meet">
<metadata>
Created by potrace 1.11, written by Peter Selinger 2001-2013
</metadata>
<g transform="translate(0.000000,258.000000) scale(0.100000,-0.100000)"
fill="#000000" stroke="none">
<path d="M390 2299 c0 -5 5 -7 10 -4 6 3 10 8 10 11 0 2 -4 4 -10 4 -5 0 -10
-5 -10 -11z"/>
<path d="M1350 2299 c0 -5 5 -7 10 -4 6 3 10 8 10 11 0 2 -4 4 -10 4 -5 0 -10
-5 -10 -11z"/>
<path d="M2186 2298 c3 -5 10 -6 15 -3 13 9 11 12 -6 12 -8 0 -12 -4 -9 -9z"/>
<path d="M630 2179 c0 -5 5 -7 10 -4 6 3 10 8 10 11 0 2 -4 4 -10 4 -5 0 -10
-5 -10 -11z"/>
<path d="M2197 2145 c-61 -30 -109 -69 -217 -177 -95 -95 -138 -125 -225 -157
-94 -35 -161 -20 -282 64 l-65 45 -76 -60 c-42 -33 -82 -64 -88 -69 -6 -5 -50
-39 -97 -75 -48 -37 -89 -71 -92 -77 -5 -8 44 -79 101 -146 11 -12 28 -34 39
-49 11 -16 38 -51 60 -79 22 -27 100 -127 174 -222 l133 -171 182 141 c99 77
182 141 183 142 1 0 -11 36 -28 79 -39 101 -46 161 -26 220 28 82 112 174 207
228 91 51 197 126 235 165 47 48 65 87 72 150 5 50 4 53 -21 63 -46 17 -117
11 -169 -15z m73 -75 c24 -24 25 -48 4 -78 -19 -28 -57 -28 -84 0 -27 29 -25
52 6 77 33 26 49 26 74 1z m-439 -752 c22 -39 -9 -13 -108 90 -100 103 -178
207 -256 340 -20 35 -37 68 -37 74 0 10 380 -469 401 -504z m-393 -26 c34 -51
62 -95 62 -97 0 -3 14 -27 30 -53 30 -48 41 -82 17 -51 -50 66 -66 86 -96 122
-18 23 -70 89 -114 147 -45 58 -84 107 -87 110 -14 14 -100 131 -100 138 0 20
234 -235 288 -316z"/>
<path d="M393 2065 c0 -8 4 -12 9 -9 5 3 6 10 3 15 -9 13 -12 11 -12 -6z"/>
<path d="M513 1945 c0 -8 4 -12 9 -9 5 3 6 10 3 15 -9 13 -12 11 -12 -6z"/>
<path d="M513 1825 c0 -8 4 -12 9 -9 5 3 6 10 3 15 -9 13 -12 11 -12 -6z"/>
<path d="M266 1818 c3 -5 10 -6 15 -3 13 9 11 12 -6 12 -8 0 -12 -4 -9 -9z"/>
<path d="M628 1823 c7 -3 16 -2 19 1 4 3 -2 6 -13 5 -11 0 -14 -3 -6 -6z"/>
<path d="M746 1591 c-4 -5 -2 -12 3 -15 5 -4 12 -2 15 3 4 5 2 12 -3 15 -5 4
-12 2 -15 -3z"/>
<path d="M887 1530 c-153 -102 -220 -190 -330 -430 -19 -41 -52 -95 -75 -120
-44 -50 -133 -99 -194 -108 -21 -2 -38 -7 -38 -11 0 -9 126 -83 184 -108 28
-12 45 -22 37 -23 -20 0 -191 58 -236 81 l-40 20 35 -31 c62 -56 264 -168 362
-202 84 -28 106 -32 228 -34 203 -3 317 33 469 151 54 41 198 183 212 208 6
10 -37 71 -169 236 -15 18 -31 40 -35 47 -24 41 -118 -12 -193 -107 -28 -35
-72 -96 -97 -135 -65 -99 -119 -157 -180 -194 l-52 -32 58 57 c47 47 69 83
123 194 120 250 169 324 226 343 6 2 -30 57 -80 121 -51 65 -92 122 -92 127 0
25 -28 14 -123 -50z"/>
<path d="M153 1465 c0 -8 4 -12 9 -9 5 3 6 10 3 15 -9 13 -12 11 -12 -6z"/>
<path d="M506 1458 c3 -5 10 -6 15 -3 13 9 11 12 -6 12 -8 0 -12 -4 -9 -9z"/>
</g>
</svg>
